<svg width="19" height="19" viewBox="0 0 19 19" fill="none" xmlns="http://www.w3.org/2000/svg">
<path d="M13.293 0.293031C13.4805 0.105559 13.7348 0.000244141 14 0.000244141C14.2652 0.000244141 14.5195 0.105559 14.707 0.293031L18.707 4.29303C18.8945 4.48056 18.9998 4.73487 18.9998 5.00003C18.9998 5.26519 18.8945 5.5195 18.707 5.70703L5.707 18.707C5.51951 18.8946 5.26519 19 5 19H1C0.734784 19 0.48043 18.8947 0.292893 18.7071C0.105357 18.5196 0 18.2652 0 18V14C5.66374e-05 13.7348 0.105451 13.4805 0.293 13.293L10.293 3.29303L13.293 0.293031ZM11 5.41403L2 14.414V17H4.586L13.586 8.00003L11 5.41403ZM15 6.58603L16.586 5.00003L14 2.41403L12.414 4.00003L15 6.58603Z" fill="#01120B"/>
</svg>
