<svg width="104" height="41" viewBox="0 0 104 41" fill="none" xmlns="http://www.w3.org/2000/svg">
<path fill-rule="evenodd" clip-rule="evenodd" d="M13.1241 0.358178C8.3122 1.0546 3.64172 4.53376 1.20615 9.23684C0.0944092 11.3828 0 11.9302 0 16.2222C0 20.5053 0.0986421 21.0803 1.22943 23.3829C3.6595 28.3324 8.98323 31.9821 14.4077 32.4178C16.8822 32.6163 17.262 32.5334 18.6184 31.4987C19.966 30.4708 20.1095 30.1626 20.1095 28.29C20.1095 25.4053 18.9643 24.1534 15.8721 23.6585C12.8591 23.1763 11.1263 22.1556 9.77067 20.0651C7.8952 17.1727 8.47943 13.0885 11.0822 10.8985C14.3235 8.17125 18.1455 8.35964 21.0345 11.3888C23.0624 13.5153 23.4066 15.6168 22.4396 19.9639C21.8529 22.6001 21.811 23.5738 22.2034 25.4133C23.305 30.5724 25.9726 33.7916 29.1465 33.7916C31.1481 33.7916 32.5617 32.8068 33.2831 30.9098C33.8178 29.5025 33.466 28.0695 32.0943 26.07C31.1198 24.65 31.0427 24.258 31.3441 22.2597C31.5291 21.035 31.6964 18.2226 31.7158 16.0106C31.7476 12.4505 31.6197 11.7198 30.602 9.64749C27.2613 2.84541 20.5582 -0.71715 13.1241 0.358178ZM36.7157 0.756136C35.9532 1.22945 35.1289 2.14051 34.8843 2.78063C34.6048 3.51304 34.4952 7.40073 34.5892 13.2587C34.7365 22.4392 34.7555 22.6065 35.91 24.9421C37.3423 27.8387 39.067 29.5512 42.1241 31.1105C44.0961 32.1164 44.9712 32.2988 47.8394 32.3039C50.6738 32.309 51.606 32.1227 53.5547 31.163C56.5889 29.6681 58.7485 27.5217 60.2082 24.5493C61.3657 22.1924 61.3894 21.9888 61.5333 13.2371C61.7035 2.91949 61.4715 1.83189 58.8378 0.582134C57.4916 -0.0567123 56.9886 -0.0982 55.6089 0.314997C52.7868 1.16044 52.6225 1.7633 52.6708 11.1081C52.7063 17.9711 52.5958 19.6036 52.0129 20.8263C50.4537 24.0967 46.3323 24.4904 44.3611 21.5574C43.4318 20.1747 43.3942 19.7789 43.3942 11.3701V2.62145L42.2299 1.51691C40.5915 -0.0372378 38.4659 -0.330623 36.7157 0.756136ZM67.7372 0.28282C64.5908 1.30565 64.5608 1.46061 64.5714 16.5118C64.5798 28.434 64.6548 29.8607 65.3122 30.6727C67.1919 32.9931 69.9345 33.1608 72.0131 31.0821L73.4526 29.6427V16.8861C73.4526 2.45634 73.3137 1.62232 70.7295 0.542761C69.1335 -0.124027 69.0187 -0.134187 67.7372 0.28282ZM78.7547 0.358602C76.9207 0.924631 76.013 2.33949 76.002 4.64806C75.994 6.33768 76.1798 6.77882 77.2954 7.71741C78.5549 8.77749 78.7847 8.81348 84.2808 8.81348C87.4064 8.81348 89.9635 8.90916 89.9635 9.026C89.9635 9.14243 88.2967 11.2668 86.2591 13.7464C75.085 27.3455 75.9927 26.0594 75.9927 28.2934C75.9927 30.0474 76.173 30.4813 77.2954 31.4254L78.5976 32.5215H89.9389C100.719 32.5215 101.334 32.4787 102.38 31.6566C104.247 30.1875 104.404 26.9459 102.708 24.8486C101.938 23.896 101.577 23.8317 95.882 23.631L89.8691 23.4193L92.7738 19.8729C94.3715 17.9224 97.5361 14.1224 99.8066 11.4281C103.709 6.79745 103.934 6.42489 103.932 4.60234C103.93 3.20526 103.651 2.3251 102.914 1.40472L101.899 0.134646L90.9567 0.052091C84.9387 0.00679178 79.4477 0.144806 78.7547 0.358602ZM34.2136 32.7179C32.803 33.3314 31.5401 35.2386 31.5401 36.7551C31.5401 37.9972 32.662 40.0327 33.6336 40.5526C34.0816 40.7926 35.14 40.9887 35.9854 40.9887C37.965 40.9887 38.9963 40.4171 39.7914 38.8803C41.0775 36.3927 40.3358 33.9978 37.8859 32.7306C36.4033 31.9639 35.9498 31.9627 34.2136 32.7179Z" fill="#8A1655"/>
</svg>
